<svg width="65" height="65" viewBox="0 0 65 65" fill="none" xmlns="http://www.w3.org/2000/svg">
<circle cx="32.5" cy="32.5" r="32.5" fill="#FFE2E2"/>
<path d="M36.5624 25.7292H28.4374M36.5624 31.1458H28.4374M36.5624 36.5625H31.1458M23.0208 20.3125H41.9791V44.6875L40.5816 43.4904C40.0907 43.0697 39.4656 42.8385 38.8191 42.8385C38.1727 42.8385 37.5475 43.0697 37.0567 43.4904L35.6592 44.6875L34.263 43.4904C33.7721 43.0694 33.1467 42.8379 32.4999 42.8379C31.8532 42.8379 31.2277 43.0694 30.7368 43.4904L29.3406 44.6875L27.9431 43.4904C27.4523 43.0697 26.8272 42.8385 26.1807 42.8385C25.5342 42.8385 24.9091 43.0697 24.4183 43.4904L23.0208 44.6875V20.3125Z" stroke="#FF0000" stroke-width="1.52344" stroke-linecap="round" stroke-linejoin="round"/>
</svg>
