<svg width="65" height="65" viewBox="0 0 65 65" fill="none" xmlns="http://www.w3.org/2000/svg">
<circle cx="32.5" cy="32.5" r="32.5" fill="#EBD7FF"/>
<path d="M26.8125 35.75C26.597 35.75 26.3903 35.6644 26.238 35.512C26.0856 35.3597 26 35.153 26 34.9375C26 34.722 26.0856 34.5153 26.238 34.363C26.3903 34.2106 26.597 34.125 26.8125 34.125H38.1875C38.403 34.125 38.6097 34.2106 38.762 34.363C38.9144 34.5153 39 34.722 39 34.9375C39 35.153 38.9144 35.3597 38.762 35.512C38.6097 35.6644 38.403 35.75 38.1875 35.75H26.8125ZM26.8125 40.625C26.597 40.625 26.3903 40.5394 26.238 40.387C26.0856 40.2347 26 40.028 26 39.8125C26 39.597 26.0856 39.3903 26.238 39.238C26.3903 39.0856 26.597 39 26.8125 39H38.1875C38.403 39 38.6097 39.0856 38.762 39.238C38.9144 39.3903 39 39.597 39 39.8125C39 40.028 38.9144 40.2347 38.762 40.387C38.6097 40.5394 38.403 40.625 38.1875 40.625H26.8125Z" fill="#8100FA"/>
<path fill-rule="evenodd" clip-rule="evenodd" d="M34.4256 17.8749H23.5625C22.916 17.8749 22.296 18.1317 21.8389 18.5888C21.3818 19.0459 21.125 19.6659 21.125 20.3124V44.6874C21.125 45.3338 21.3818 45.9538 21.8389 46.411C22.296 46.8681 22.916 47.1249 23.5625 47.1249H41.4375C42.084 47.1249 42.704 46.8681 43.1611 46.411C43.6182 45.9538 43.875 45.3338 43.875 44.6874V27.9531C43.8748 27.3429 43.6458 26.7549 43.2331 26.3054L36.2229 18.6646C35.9944 18.4156 35.7167 18.2168 35.4073 18.0808C35.0979 17.9449 34.7636 17.8747 34.4256 17.8749ZM22.75 20.3124C22.75 20.0969 22.8356 19.8902 22.988 19.7379C23.1403 19.5855 23.347 19.4999 23.5625 19.4999H34.4256C34.5384 19.4998 34.6499 19.5231 34.7531 19.5684C34.8564 19.6137 34.949 19.68 35.0253 19.7631L42.0355 27.4039C42.1733 27.5536 42.2498 27.7496 42.25 27.9531V44.6874C42.25 44.9029 42.1644 45.1095 42.012 45.2619C41.8597 45.4143 41.653 45.4999 41.4375 45.4999H23.5625C23.347 45.4999 23.1403 45.4143 22.988 45.2619C22.8356 45.1095 22.75 44.9029 22.75 44.6874V20.3124Z" fill="#8100FA"/>
<path d="M34.125 27.625H43.0625C43.278 27.625 43.4847 27.7106 43.637 27.863C43.7894 28.0154 43.875 28.222 43.875 28.4375C43.875 28.653 43.7894 28.8597 43.637 29.012C43.4847 29.1644 43.278 29.25 43.0625 29.25H33.3125C33.097 29.25 32.8903 29.1644 32.738 29.012C32.5856 28.8597 32.5 28.653 32.5 28.4375V18.6875C32.5 18.472 32.5856 18.2653 32.738 18.113C32.8903 17.9606 33.097 17.875 33.3125 17.875C33.528 17.875 33.7347 17.9606 33.887 18.113C34.0394 18.2653 34.125 18.472 34.125 18.6875V27.625Z" fill="#8100FA"/>
</svg>
