<svg width="65" height="65" viewBox="0 0 65 65" fill="none" xmlns="http://www.w3.org/2000/svg">
<circle cx="32.5" cy="32.5" r="32.5" fill="#FFEFD2"/>
<path d="M23.2348 32.1492C23.1359 34.0396 23.2497 36.0519 21.561 37.318C21.1728 37.6086 20.8578 37.9857 20.641 38.4195C20.4243 38.8532 20.3118 39.3316 20.3125 39.8165C20.3125 41.1666 21.3715 42.3176 22.75 42.3176H42.25C43.6285 42.3176 44.6875 41.1666 44.6875 39.8165C44.6875 38.8333 44.2244 37.9071 43.439 37.318C41.7503 36.0519 41.8641 34.0396 41.7652 32.1492C41.6433 29.7741 40.614 27.5365 38.8898 25.8985C37.1656 24.2605 34.8782 23.3472 32.5 23.3472C30.1218 23.3472 27.8344 24.2605 26.1102 25.8985C24.386 27.5365 23.3567 29.7741 23.2348 32.1492Z" stroke="#FFA500" stroke-width="2.03125" stroke-linecap="round" stroke-linejoin="round"/>
<path d="M36.5625 42.3177C36.5625 43.3951 36.1345 44.4285 35.3726 45.1903C34.6108 45.9522 33.5774 46.3802 32.5 46.3802C31.4226 46.3802 30.3892 45.9522 29.6274 45.1903C28.8655 44.4285 28.4375 43.3951 28.4375 42.3177M30.4687 20.8203C30.4687 21.9416 31.3787 23.3594 32.5 23.3594C33.6212 23.3594 34.5312 21.9416 34.5312 20.8203C34.5312 19.6991 33.6212 19.2969 32.5 19.2969C31.3787 19.2969 30.4687 19.6991 30.4687 20.8203Z" stroke="#FFA500" stroke-width="2.03125" stroke-linecap="round" stroke-linejoin="round"/>
</svg>
